<?xml version="1.0"?>
<svg width="127" height="32" xmlns="http://www.w3.org/2000/svg" xmlns:svg="http://www.w3.org/2000/svg">
 <g class="layer">
  <title>Layer 1</title>
  <g id="svg_1" stroke-opacity="0">
   <path d="m115.01319,9.76578c4.00977,-1.99654 9.12634,-0.01773 11.7318,2.08552c-1.37754,2.11628 -3.80384,4.64041 -7.03908,4.95339c-3.39459,0.32844 -6.06818,-1.60433 -7.56042,-3.38903c3.08023,-0.00487 6.39488,0.2247 8.3426,-0.91251c-2.03669,-0.24972 -6.10884,0.38822 -8.08193,-0.65167c0.3837,-2.14443 1.4196,-4.15766 1.04285,-6.64791c-0.87984,1.81408 -0.90295,4.48506 -2.21603,5.8659c-2.68245,-3.78351 -0.04935,-9.46746 3.25887,-10.81946c1.96092,2.14113 2.9525,7.1649 0.52134,9.51578l0,-0.00001z" fill="#000000" fill-rule="evenodd" id="svg_2" stroke="#000000"/>
   <path d="m107.45278,5.33372c0.7224,0.31176 0.7582,1.3798 0.78218,2.08569c0.12599,3.72286 -1.10297,7.55225 0.782,10.29778c0.45513,0.66279 1.32802,1.79566 2.73754,1.56418c-0.56322,-2.01705 -4.84704,-5.30633 -1.82502,-8.08193c0.81381,0.15936 0.57225,1.33236 0.78218,1.95518c0.73491,2.18197 3.42222,3.74024 4.43188,5.99623c2.358,5.26914 -2.67341,9.5507 -5.08372,13.03514c2.22002,-7.41357 -5.03663,-10.3513 -5.08372,-16.68502c-0.01216,-1.64204 0.55574,-3.24914 1.04285,-4.95339c0.49371,-1.72753 0.62908,-3.64866 1.17318,-5.21406c0.08689,0.00017 0.17378,0.00017 0.26067,0.00017l-0.00002,0.00003z" fill="#000000" fill-rule="evenodd" id="svg_3" stroke="#000000"/>
  </g>
  <g id="svg_4">
   <path d="m10.00983,5.429756l-6.068575,8.163712l5.104254,6.168333l-1.612514,0l-4.256778,-5.137737l-1.67925,2.228146l0,2.909591l-1.246968,0l0,-14.332045l1.28022,0l0,9.294065l6.93314,-9.294065l1.546471,0zm-6.534341,11.322466l-0.315668,0.465765l0,2.543814l-0.515413,0l0,-2.543814l0.582149,-0.765038l0.248932,0.299272zm0.216141,-11.322466l-0.515413,5.204011l-0.498787,0.665049l0,-5.869061l1.0142,0zm8.246612,0l-6.051949,8.113833l5.12088,6.234838l-0.498787,0l-5.12088,-6.234838l6.035323,-8.113833l0.515413,0z" id="svg_5"/>
   <path d="m24.620134,19.76157l-1.263594,0l0,-3.923791l-8.96154,0l0,3.923791l-1.263825,0l0,-14.331814l1.263825,0l0,9.14466l8.96154,0l0,-9.14466l1.263594,0l0,14.331814zm-8.080581,-14.331814l-0.382172,8.013845l-0.631797,0l0,-8.013845l1.013969,0zm5.902544,11.871131l-6.301343,0l-0.116384,2.460683l-0.498787,0l0,-2.792976l6.916513,0l0,0.332294zm4.322821,-11.871131l-0.498787,14.331814l-0.515182,0l0,-14.331814l1.013969,0z" id="svg_6"/>
   <path d="m39.014065,19.76157l-1.330099,0l-0.532039,-1.463109l-7.315774,0l-0.532039,1.463109l-1.346725,0l5.536767,-15.046742l5.51991,15.046742zm-2.344299,-2.710076l-3.175611,-8.662268l-3.192237,8.662268l6.367848,0zm-5.536536,2.394178l-0.13301,0.332525l-0.498556,0l0.132779,-0.332525l0.498787,0zm2.95947,-6.168333l-1.67925,2.626945l-0.498787,0l1.579723,-4.256316l0.598314,1.629371zm3.740903,-11.654759l-3.042601,3.391521l-0.914443,0l2.061884,-3.391752l1.89516,0l0,0.000231zm2.892965,18.155848l-0.498787,0l-5.386669,-14.331814l0.515182,0l5.370274,14.331814z" id="svg_7"/>
   <path d="m53.125581,20.626134l-9.975741,-12.270161l0,11.405597l-1.230341,0l0,-14.847227l9.975741,12.270161l0,-11.405366l1.230341,0l0,14.846996zm-2.327904,-6.567363l-6.816987,-8.279634l0.482392,0l6.334595,7.68132l0,0.598314zm-5.3869,-1.180232l-0.665049,6.883261l-0.482161,0l0,-8.296491l1.14721,1.41323zm9.310922,6.899887l-0.498787,0l0,-13.999289l0.498787,0l0,13.999289z" id="svg_8"/>
   <path d="m67.403129,19.76157l-1.263594,0l0,-3.923791l-8.96154,0l0,3.923791l-1.263825,0l0,-14.331814l1.263825,0l0,9.14466l8.96154,0l0,-9.14466l1.263594,0l0,14.331814zm-8.08035,-14.331814l-0.382172,8.013845l-0.631797,0l0,-8.013845l1.013969,0zm5.902313,11.871131l-6.301343,0l-0.116384,2.460683l-0.498787,0l0,-2.792976l6.916513,0l0,0.332294zm4.322821,-11.871131l-0.498787,14.331814l-0.515182,0l0,-14.331814l1.013969,0z" fill="black" id="svg_9"/>
   <path d="m82.211562,17.167877c0,0.720701 -0.252395,1.333101 -0.756494,1.83743c-0.50456,0.504329 -1.111418,0.756263 -1.820573,0.756263l-5.154133,0l0,-14.331814l1.446713,0c1.651308,0 3.058996,0.582149 4.222833,1.745986s1.745986,2.571524 1.745986,4.223063c0,1.263825 -0.371319,2.410804 -1.113958,3.44163c0.953007,0.487703 1.429625,1.263363 1.429625,2.327442zm-1.596118,-5.769303c0,-1.374204 -0.471077,-2.505019 -1.41323,-3.391752s-2.10599,-1.33033 -3.491509,-1.33033l0,9.410449l0.216372,0c1.296615,0 2.40226,-0.456991 3.316703,-1.371433s1.371664,-2.019857 1.371664,-3.316934zm0.349151,5.769303c0,-0.321441 -0.102528,-0.606627 -0.307585,-0.85602c-0.205288,-0.249394 -0.468306,-0.401801 -0.789746,-0.457221c-1.130584,0.997574 -2.444056,1.49613 -3.940187,1.49613c-0.099988,0 -0.172035,-0.005311 -0.216372,-0.016395l0,1.180232l3.923791,0c0.365777,0 0.678674,-0.132779 0.939151,-0.39903s0.390947,-0.581918 0.390947,-0.947695zm-3.158985,-8.944683l-0.448908,6.434353c-0.166493,0.055421 -0.321671,0.116384 -0.465535,0.182889l0,-6.883492c0.465535,0.13301 0.770118,0.221914 0.914443,0.266251zm6.051949,8.944683c0,1.019742 -0.360466,1.89008 -1.080936,2.61055l-0.498556,0c0.720239,-0.72047 1.080705,-1.590807 1.080705,-2.61055c0,-0.997343 -0.360466,-1.872991 -1.080705,-2.626945c0.487472,-0.997343 0.731554,-2.044796 0.731554,-3.142127c0,-1.208173 -0.288188,-2.344299 -0.864564,-3.408378s-1.374435,-1.917559 -2.394178,-2.560671l0.515413,0c1.019742,0.643112 1.817571,1.496592 2.393947,2.560671s0.864564,2.199974 0.864564,3.408378c0,1.075163 -0.249394,2.122385 -0.748181,3.142127c0.72047,0.753954 1.080936,1.629602 1.080936,2.626945z" id="svg_10"/>
   <path d="m96.539912,14.025519c0,1.585034 -0.559981,2.937532 -1.67925,4.056801s-2.471767,1.679019 -4.05657,1.679019c-1.596118,0 -2.954159,-0.556748 -4.073658,-1.670706s-1.679019,-2.468996 -1.679019,-4.065114l0,-8.595763l1.263825,0l0,8.595994c0,1.25251 0.437824,2.314049 1.313473,3.183924s1.934185,1.304928 3.175611,1.304928c1.230341,0 2.285876,-0.440364 3.167298,-1.321786c0.88119,-0.880959 1.322017,-1.936956 1.322017,-3.167298l0,-8.595763l1.246737,0l0,8.595763l-0.000462,0zm-5.486657,3.341873l-0.249394,0c-0.931069,0 -1.726588,-0.323981 -2.385865,-0.972635c-0.659507,-0.648423 -0.989261,-1.438169 -0.989261,-2.369238l0,-8.595763l1.396604,0l-0.880959,8.595994c0,0.022168 -0.003002,0.05265 -0.008313,0.091444c-0.005542,0.038795 -0.008313,0.069507 -0.008313,0.091444c0,0.798059 0.312896,1.499132 0.939151,2.103219s1.355038,0.955778 2.18635,1.055535zm2.543814,-12.353292l-0.914443,0l-3.042601,-3.391752l1.895391,0l2.061653,3.391752zm4.588841,9.011419c0,1.163836 -0.279875,2.252855 -0.839625,3.267055s-1.327328,1.842741 -2.302733,2.485622l-0.515413,0c0.986259,-0.631797 1.75961,-1.457797 2.31936,-2.47754s0.839625,-2.111532 0.839625,-3.275368l0,-8.595532l0.498787,0l0,8.595763z" id="svg_11"/>
   <path d="m100.625578,19.76157l-1.246968,0l0,-14.348209l1.246968,0l0,14.348209zm2.16141,-14.348209l-0.498556,14.34844l-0.515413,0l0,-14.34844l1.013969,0z" fill="black" id="svg_12"/>
  </g>
 </g>
</svg>