<?xml version="1.0" encoding="utf-8"?>
<!-- Generator: Adobe Illustrator 22.1.0, SVG Export Plug-In . SVG Version: 6.00 Build 0)  -->
<svg version="1.1" id="Layer_1" xmlns="http://www.w3.org/2000/svg" xmlns:xlink="http://www.w3.org/1999/xlink" x="0px" y="0px"
	 viewBox="0 0 301.3 82.4" style="enable-background:new 0 0 301.3 82.4;" xml:space="preserve">
<style type="text/css">
	.st0{display:none;enable-background:new    ;}
	.st1{display:inline;fill:#1CA766;}
	.st2{fill:#151B26;}
	.st3{fill:#FFFFFF;}
</style>
 <g class="layer">
  <title>Layer 1</title>
  <circle class="st2" cx="40.1" cy="41" fill="#3f7f00" id="svg_6" r="40.1"/>
  <g id="svg_1">
   <path class="st3" d="m52.87772,57.1821c-7.50859,-5.87104 -2.20943,-30.01976 -2.20943,-30.01976s8.21923,0 9.17704,0s4.71267,-0.60222 4.71267,-5.09861c0,-5.53117 -4.58852,-5.1913 -4.58852,-5.1913s-25.1526,0 -33.78866,0c-5.54634,0 -10.55225,6.35023 -13.42569,10.89212c-1.52969,2.42571 -0.66457,3.10545 1.96226,1.96226c9.2085,-4.03237 11.80387,-2.5802 11.80387,-2.5802c0.64884,3.10545 0.86512,17.11876 -1.49824,22.64936c-2.39482,5.20703 -6.81312,11.80387 -0.3247,15.68175c5.06771,2.87344 10.38203,-3.02849 9.85678,-13.07122c-0.24718,-5.31489 -0.66457,-25.24473 -0.66457,-25.24473l8.46697,0c-0.26347,3.10545 -1.69935,18.95686 -0.20055,28.35074c1.56003,15.68175 18.60126,12.63809 21.78368,3.75542c0.7876,-2.45661 0.60278,-4.3419 0.01517,-5.76374c-1.08197,-2.64143 -2.88973,-2.78019 -2.68806,-1.54486c0.12415,0.7876 0.04663,1.56003 -0.07752,2.25606c-0.37133,2.14764 -4.75874,5.51488 -8.31248,2.9667l-0.00002,0.00001z" id="svg_2"/>
  </g>
  <g class="st2" id="svg_3">
   <path d="m110.81979,30.08626l-10.46095,0l0,31.04353l-7.03802,0l0,-31.04353l-10.32083,0l0,-6.22007l27.8198,0l0,6.22007z" id="svg_4"/>
   <path d="m128.64704,40.338c-0.34429,-0.05242 -0.74864,-0.0961 -1.20904,-0.13977s-0.87274,-0.06552 -1.23306,-0.06552c-1.32913,0 -2.40606,0.24461 -3.22676,0.72946s-1.42122,1.19247 -1.81355,2.11413l0,18.11856l-6.7778,0l0,-27.69327l6.40548,0l0.18816,3.30223c0.64055,-1.19247 1.42922,-2.12723 2.37003,-2.80427s2.03374,-1.00901 3.28281,-1.00901c0.36031,0 0.74064,0.03495 1.13697,0.10046s0.72462,0.14414 0.97283,0.23151l-0.09609,7.11551l0.00001,0l0.00001,-0.00002z" id="svg_5"/>
   <path d="m146.61841,61.09485c-0.31227,-0.66394 -0.54046,-1.49387 -0.68058,-2.48103c-0.68859,0.8343 -1.55333,1.54628 -2.59021,2.12286s-2.30998,0.86923 -3.81126,0.86923c-1.22105,0 -2.35802,-0.2053 -3.41493,-0.61589s-1.96968,-0.9828 -2.74635,-1.71664s-1.38118,-1.60743 -1.81755,-2.62518s-0.65656,-2.12723 -0.65656,-3.34154c0,-1.45018 0.24822,-2.73875 0.74064,-3.8657s1.23306,-2.08354 2.2179,-2.86542s2.20989,-1.38029 3.67114,-1.79089s3.16271,-0.61589 5.10036,-0.61589l3.02659,0l0,-1.57686c0,-1.27983 -0.30026,-2.30195 -0.90478,-3.07072s-1.55333,-1.15316 -2.85044,-1.15316c-1.14097,0 -2.03775,0.29703 -2.6863,0.89544s-0.97283,1.41524 -0.97283,2.4592l-6.7778,0c0,-1.19247 0.25222,-2.32815 0.76065,-3.40269s1.23306,-2.01366 2.16986,-2.81738s2.07377,-1.43707 3.40291,-1.90883s2.81441,-0.70325 4.45581,-0.70325c1.46925,0 2.83042,0.2053 4.0835,0.61589s2.33,1.01775 3.23877,1.8302s1.61338,1.82584 2.12181,3.04451s0.76065,2.63829 0.76065,4.26319l0,11.72378c0,0.78624 0.02402,1.48949 0.07206,2.10975s0.1081,1.18373 0.18816,1.69043s0.18015,0.95659 0.30426,1.35846s0.27224,0.78188 0.44438,1.14006l0,0.43681l-6.84986,0l0,-0.00874l0,0.00001l0,-0.00001zm-5.6088,-5.14553c0.5805,0 1.11295,-0.07863 1.60537,-0.23151s0.9328,-0.35381 1.32513,-0.60279s0.73263,-0.5329 1.02087,-0.85613s0.52044,-0.65521 0.69259,-1.00028l0,-4.76115l-2.79039,0c-0.89277,0 -1.66542,0.10484 -2.32199,0.31886s-1.19703,0.5198 -1.61738,0.90418s-0.73663,0.8343 -0.9368,1.35846s-0.30426,1.08764 -0.30426,1.70353c0,0.92165 0.29625,1.68169 0.89277,2.27574s1.4012,0.89108 2.43408,0.89108l-0.00001,0l0.00002,0.00001z" id="svg_7"/>
   <path d="m163.9052,33.40159l0.21218,3.19739c0.87674,-1.19247 1.92965,-2.10975 3.16671,-2.75186s2.61023,-0.96097 4.12753,-0.96097c1.20504,0 2.29796,0.18345 3.28281,0.55037s1.82957,0.9697 2.53417,1.80399s1.24907,1.9263 1.62939,3.27602s0.5765,3.0052 0.5765,4.96644l0,17.6075l-6.7778,0l0,-17.65555c0,-0.8867 -0.08808,-1.62054 -0.26823,-2.20148s-0.44038,-1.03959 -0.78467,-1.38029s-0.76466,-0.58532 -1.26508,-0.72946s-1.08093,-0.2184 -1.73749,-0.2184c-1.00085,0 -1.85759,0.24024 -2.5702,0.71636s-1.2851,1.12695 -1.72548,1.94377l0,19.52943l-6.7778,0l0,-27.69327l6.37745,0l0,0.00001l0.00001,0z" id="svg_8"/>
   <path d="m191.18455,36.45921c0.84472,-1.10948 1.83357,-1.97434 2.96654,-2.59898s2.40606,-0.93476 3.81126,-0.93476c1.25307,0 2.39405,0.19219 3.42293,0.57658s1.91764,1.00465 2.65027,1.86952s1.30111,1.97434 1.70146,3.34154s0.59651,3.0183 0.59651,4.96644l0,17.45025l-6.7778,0l0,-17.50704c0,-0.8867 -0.08808,-1.62927 -0.26823,-2.22769s-0.44038,-1.0789 -0.78467,-1.44582s-0.76866,-0.629 -1.27709,-0.78188s-1.08093,-0.22714 -1.72147,-0.22714c-1.06491,0 -1.94566,0.22714 -2.65027,0.67704s-1.25708,1.06143 -1.66542,1.8302l0,19.68231l-6.78181,0l0,-39.31221l6.7778,0l0,14.64162l-0.00001,0.00002z" id="svg_9"/>
   <path class="st1" d="m218.93628,47.99952l0,13.13028l-7.03802,0l0,-37.2636l13.3234,0c2.01773,0 3.81927,0.30576 5.40863,0.92165s2.9305,1.47202 4.03545,2.57277s1.94166,2.40678 2.52216,3.91374s0.86874,3.15371 0.86874,4.92713c0,1.80836 -0.28825,3.43764 -0.86874,4.88782s-1.41721,2.68633 -2.52216,3.71282s-2.44609,1.81273 -4.03545,2.36747s-3.3909,0.82992 -5.40863,0.82992l-6.28538,0zm0,-6.22007l6.28538,0c1.00085,0 1.8656,-0.13541 2.59021,-0.4106s1.32113,-0.65083 1.78152,-1.14006s0.80068,-1.07017 1.02087,-1.75157s0.32828,-1.42397 0.32828,-2.22769s-0.1081,-1.57249 -0.32828,-2.31505s-0.56048,-1.39777 -1.02087,-1.96998s-1.05691,-1.02649 -1.78152,-1.36719s-1.58936,-0.51106 -2.59021,-0.51106l-6.28538,0l0,11.69319l0,0.00001z" id="svg_10"/>
   <path class="st1" d="m256.7046,40.338c-0.34429,-0.05242 -0.74864,-0.0961 -1.20904,-0.13977s-0.87274,-0.06552 -1.23306,-0.06552c-1.32913,0 -2.40606,0.24461 -3.22676,0.72946s-1.42522,1.1881 -1.81755,2.10975l0,18.11856l-6.7778,0l0,-27.69327l6.40548,0l0.18816,3.30223c0.64055,-1.19247 1.42922,-2.12723 2.37003,-2.80427s2.03374,-1.00901 3.28281,-1.00901c0.36031,0 0.74064,0.03495 1.13697,0.10046s0.72462,0.14414 0.97283,0.23151l-0.09208,7.11987l0,0.00001l0.00001,-0.00001z" id="svg_11"/>
   <path class="st1" d="m258.90648,46.99487c0,-2.01366 0.26423,-3.88317 0.79668,-5.60417s1.30511,-3.21049 2.32199,-4.46412s2.26994,-2.2408 3.76322,-2.95715s3.19473,-1.07453 5.10036,-1.07453c1.92164,0 3.63511,0.35818 5.13639,1.07453s2.76236,1.70353 3.78724,2.95715s1.80154,2.74312 2.334,4.46412s0.79668,3.59052 0.79668,5.60417l0,0.53727c0,2.03114 -0.26423,3.90502 -0.79668,5.61728s-1.30912,3.19739 -2.334,4.45539s-2.27795,2.23642 -3.76322,2.94405s-3.19073,1.06143 -5.11237,1.06143s-3.63111,-0.35381 -5.12438,-1.06143s-2.75435,-1.69043 -3.77523,-2.94405s-1.80154,-2.73875 -2.334,-4.45539s-0.79668,-3.58615 -0.79668,-5.61728l0,-0.53727zm6.78181,0.53727c0,1.12695 0.09208,2.18402 0.28024,3.17556s0.48842,1.84767 0.90478,2.57277s0.95282,1.30168 1.61738,1.72974s1.48126,0.63773 2.45009,0.63773c0.9368,0 1.74149,-0.21404 2.40606,-0.63773s1.20904,-1.00028 1.62939,-1.72974s0.72863,-1.58123 0.91679,-2.57277s0.28024,-2.0486 0.28024,-3.17556l0,-0.53727c0,-1.092 -0.09208,-2.12723 -0.28024,-3.11003s-0.49242,-1.84331 -0.91679,-2.58587s-0.96883,-1.33225 -1.6414,-1.76468s-1.48527,-0.65083 -2.43808,-0.65083c-0.9368,0 -1.74149,0.2184 -2.40606,0.65083s-1.20504,1.02211 -1.61738,1.76468s-0.71662,1.60306 -0.90478,2.58587s-0.28024,2.01803 -0.28024,3.11003l0,0.53727z" id="svg_12"/>
  </g>
 </g>
</svg>
