<svg xmlns="http://www.w3.org/2000/svg" width="556" height="98" viewBox="0 0 556 98"><g fill="none" fill-rule="evenodd"><path d="m92.95149,13.15118c1.3658,0 2.64349,0.57276 3.87712,1.5861c1.18957,1.01334 1.76233,2.4232 1.76233,4.14147c0,0.5287 -0.08812,1.10146 -0.26435,1.80639c0,0 -21.67664,63.44381 -21.67664,63.44381c-0.39652,1.10146 -1.01334,1.8945 -1.93856,2.4232c-0.92522,0.57276 -1.85044,0.88116 -2.81972,0.96928c-1.01334,0 -2.02668,-0.26435 -3.04002,-0.83711c-0.96928,-0.57276 -1.67421,-1.45392 -2.11479,-2.55538c0,0 -16.1253,-37.93411 -16.1253,-37.93411c0,0 -16.16936,37.93411 -16.16936,37.93411c-0.57276,1.10146 -1.32175,1.98262 -2.29103,2.55538c-0.92522,0.57276 -1.93856,0.83711 -2.99596,0.83711c-0.92522,-0.08812 -1.85044,-0.39652 -2.77567,-0.96928c-0.92522,-0.5287 -1.54204,-1.32175 -1.85044,-2.4232c0,0 -21.67664,-63.44381 -21.67664,-63.44381c-0.26435,-0.70493 -0.35247,-1.27769 -0.35247,-1.80639c0,-1.71827 0.61681,-3.12813 1.93856,-4.14147c1.27769,-1.01334 2.55538,-1.5861 3.92118,-1.5861c1.10146,0 2.11479,0.35247 3.08407,0.92522c0.96928,0.57276 1.5861,1.45392 1.93856,2.59943c0,0 17.53516,52.07679 17.53516,52.07679c0,0 14.93573,-36.83266 14.93573,-36.83266c0.5287,-1.0574 1.18957,-1.8945 2.07074,-2.55538c0.88116,-0.66087 1.8945,-0.92522 3.04002,-0.83711c1.10146,-0.08812 2.07074,0.17623 2.9519,0.83711c0.92522,0.66087 1.5861,1.49798 1.98262,2.55538c0,0 14.49515,36.48019 14.49515,36.48019c0,0 17.31487,-51.72433 17.31487,-51.72433c0.39652,-1.14551 1.0574,-2.02668 2.02668,-2.59943c0.96928,-0.57276 2.07074,-0.92522 3.21625,-0.92522zm68.99514,46.56952c0,5.63945 -1.27769,10.66208 -3.78901,14.97979c-2.55538,4.3177 -5.9038,7.71019 -10.13339,10.2215c-4.22959,2.4232 -8.98787,3.61277 -14.2308,3.61277c-5.24293,0 -10.00121,-1.18957 -14.27486,-3.61277c-4.27365,-2.51132 -7.66613,-5.9038 -10.17744,-10.2215c-2.46726,-4.3177 -3.70089,-9.34034 -3.70089,-14.97979c0,-5.68351 1.23363,-10.70614 3.70089,-15.02385c2.51132,-4.36176 5.9038,-7.75424 10.17744,-10.26556c4.27365,-2.51132 9.03193,-3.78901 14.27486,-3.78901c5.24293,0 10.00121,1.27769 14.2308,3.78901c4.22959,2.51132 7.57801,5.9038 10.13339,10.26556c2.51132,4.3177 3.78901,9.34034 3.78901,15.02385zm-10.61803,0c0,-3.87712 -0.79305,-7.22555 -2.33508,-10.04527c-1.5861,-2.90784 -3.70089,-5.19887 -6.34438,-6.82902c-2.59943,-1.67421 -5.55133,-2.46726 -8.8557,-2.46726c-3.30437,0 -6.25626,0.79305 -8.89976,2.46726c-2.59943,1.63015 -4.71423,3.92118 -6.34438,6.82902c-1.54204,2.81972 -2.33508,6.16815 -2.33508,10.04527c0,3.70089 0.79305,7.00525 2.33508,9.9131c1.63015,2.86378 3.74495,5.15481 6.34438,6.78496c2.64349,1.63015 5.59539,2.4232 8.89976,2.4232c3.30437,0 6.25626,-0.79305 8.8557,-2.4232c2.64349,-1.63015 4.75829,-3.92118 6.34438,-6.78496c1.54204,-2.90784 2.33508,-6.21221 2.33508,-9.9131zm88.60104,-28.37348c1.32175,0 2.51132,0.5287 3.52466,1.5861c1.0574,1.01334 1.5861,2.33508 1.5861,3.92118c0,0.39652 -0.04406,0.74899 -0.13217,1.10146c-0.08812,0.30841 -0.17623,0.61681 -0.30841,0.88116c0,0 -16.16936,45.29183 -16.16936,45.29183c-0.44058,1.23363 -1.23363,2.11479 -2.24697,2.68755c-1.10146,0.61681 -2.15885,0.83711 -3.26031,0.70493c-2.07074,-0.13217 -3.56871,-1.27769 -4.53799,-3.39248c0,0 -10.57397,-28.4616 -10.57397,-28.4616c0,0 -9.95715,28.4616 -9.95715,28.4616c-1.01334,2.11479 -2.51132,3.26031 -4.53799,3.39248c-1.0574,0.13217 -2.11479,-0.08812 -3.21625,-0.70493c-1.10146,-0.57276 -1.85044,-1.45392 -2.29103,-2.68755c0,0 -16.30153,-45.29183 -16.30153,-45.29183c-0.26435,-0.57276 -0.39652,-1.23363 -0.39652,-1.98262c0,-1.45392 0.48464,-2.73161 1.40986,-3.87712c0.96928,-1.0574 2.24697,-1.63015 3.87712,-1.63015c1.14551,0 2.15885,0.30841 3.04002,0.88116c0.83711,0.57276 1.45392,1.40986 1.85044,2.55538c0,0 12.3363,34.93815 12.3363,34.93815c0,0 9.73686,-25.86216 9.73686,-25.86216c0.92522,-2.20291 2.51132,-3.30437 4.8464,-3.30437c1.27769,0 2.24697,0.30841 2.9519,0.92522c0.70493,0.5287 1.32175,1.3658 1.71827,2.37914c0,0 9.78092,25.20129 9.78092,25.20129c0,0 12.16006,-34.27728 12.16006,-34.27728c0.74899,-2.29103 2.46726,-3.43654 5.11075,-3.43654z" fill="#FFF" id="svg_2"/>
   <path d="m340.6467,50.46848c0,5.3751 -0.88116,10.39774 -2.59943,15.02385c-1.76233,4.58205 -4.22959,8.63541 -7.44584,12.11601c-3.21625,3.43654 -7.00525,6.12409 -11.41107,8.06265c-4.40582,1.93856 -9.16411,2.86378 -14.36297,2.86378c-5.11075,0 -9.86904,-0.92522 -14.27486,-2.86378c-4.40582,-1.93856 -8.19483,-4.62611 -11.36702,-8.06265c-3.21625,-3.4806 -5.72757,-7.53395 -7.44584,-12.11601c-1.71827,-4.62611 -2.55538,-9.64875 -2.55538,-15.02385c0,-5.28698 0.83711,-10.26556 2.55538,-14.93573c1.71827,-4.62611 4.22959,-8.67947 7.44584,-12.11601c3.17219,-3.43654 6.9612,-6.12409 11.36702,-8.06265c4.40582,-1.93856 9.16411,-2.9519 14.27486,-2.9519c5.19887,0 9.95715,1.01334 14.36297,2.9519c4.40582,1.93856 8.19483,4.62611 11.41107,8.06265c3.21625,3.43654 5.68351,7.48989 7.44584,12.11601c1.71827,4.67017 2.59943,9.64875 2.59943,14.93573zm-11.41107,0c0,-5.15481 -1.0574,-9.82498 -3.12813,-14.01051c-2.07074,-4.18553 -4.93452,-7.48989 -8.59135,-9.86904c-3.70089,-2.37914 -7.88642,-3.56871 -12.68876,-3.56871c-4.71423,0 -8.89976,1.18957 -12.55659,3.56871c-3.70089,2.37914 -6.56467,5.63945 -8.63541,9.78092c-2.02668,4.14147 -3.04002,8.8557 -3.04002,14.09862c0,5.24293 1.01334,9.95715 3.04002,14.14268c2.07074,4.09741 4.93452,7.40178 8.63541,9.82498c3.65683,2.37914 7.84236,3.56871 12.55659,3.56871c4.80234,0 8.98787,-1.18957 12.68876,-3.56871c3.65683,-2.4232 6.52061,-5.72757 8.59135,-9.82498c2.07074,-4.18553 3.12813,-8.89976 3.12813,-14.14268zm27.4042,37.05295c-1.54204,0 -2.81972,-0.48464 -3.78901,-1.49798c-0.96928,-1.0574 -1.45392,-2.37914 -1.45392,-3.87712c0,0 0,-44.89531 0,-44.89531c0,-1.49798 0.48464,-2.77567 1.45392,-3.78901c0.96928,-1.01334 2.24697,-1.54204 3.78901,-1.54204c1.49798,0 2.73161,0.5287 3.74495,1.54204c1.01334,1.01334 1.54204,2.29103 1.54204,3.78901c0,0 -0.04406,4.09741 -0.04406,4.09741c0,0 0.39652,-0.57276 1.54204,-2.20291c1.18957,-1.71827 2.59943,-3.21625 4.22959,-4.49394c1.5861,-1.27769 3.39248,-2.29103 5.41916,-2.9519c2.02668,-0.70493 4.14147,-1.0574 6.34438,-1.0574c1.76233,0 3.30437,0.5287 4.67017,1.54204c1.3658,0.96928 2.07074,2.15885 2.07074,3.65683c0,1.8945 -0.5287,3.26031 -1.54204,4.18553c-0.92522,0.88116 -2.02668,1.32175 -3.21625,1.32175c-1.0574,0 -2.11479,-0.26435 -3.08407,-0.70493c-0.96928,-0.44058 -2.11479,-0.70493 -3.43654,-0.70493c-1.54204,0 -3.08407,0.39652 -4.62611,1.18957c-1.54204,0.79305 -2.9519,1.93856 -4.18553,3.43654c-1.32175,1.49798 -2.33508,3.30437 -3.04002,5.3751c-0.74899,2.02668 -1.10146,4.3177 -1.10146,6.82902c0,0 0,25.37752 0,25.37752c0,1.49798 -0.5287,2.81972 -1.54204,3.87712c-1.01334,1.01334 -2.24697,1.49798 -3.74495,1.49798zm79.481,-78.29142c1.54204,0 2.77567,0.5287 3.78901,1.54204c1.01334,0.96928 1.49798,2.24697 1.49798,3.92118c0,0 0,67.45311 0,67.45311c0,1.49798 -0.48464,2.81972 -1.49798,3.87712c-1.01334,1.01334 -2.24697,1.49798 -3.78901,1.49798c-1.49798,0 -2.77567,-0.48464 -3.78901,-1.49798c-0.96928,-1.0574 -1.45392,-2.37914 -1.45392,-3.87712c0,0 0.04406,-2.4232 0.04406,-2.4232c0,0 -1.8945,2.29103 -3.65683,3.78901c-1.76233,1.49798 -3.83306,2.68755 -6.21221,3.65683c-2.37914,0.92522 -4.93452,1.3658 -7.71019,1.3658c-4.80234,0 -9.20816,-1.23363 -13.08529,-3.70089c-3.92118,-2.51132 -7.00525,-5.94786 -9.29628,-10.26556c-2.24697,-4.36176 -3.34842,-9.34034 -3.34842,-14.97979c0,-5.59539 1.10146,-10.57397 3.34842,-14.89167c2.29103,-4.36176 5.33104,-7.75424 9.16411,-10.26556c3.83306,-2.51132 8.15077,-3.78901 12.86499,-3.78901c2.99596,0 5.77162,0.5287 8.327,1.54204c2.55538,0.96928 4.80234,2.24697 6.69685,3.78901c1.93856,1.49798 2.9519,2.90784 2.9519,2.90784c0,0 -0.08812,-24.18795 -0.08812,-24.18795c0,-1.54204 0.48464,-2.86378 1.45392,-3.87712c1.01334,-1.01334 2.29103,-1.5861 3.78901,-1.5861zm-21.54446,69.61196c3.30437,0 6.21221,-0.83711 8.67947,-2.55538c2.51132,-1.67421 4.49394,-3.96524 5.9038,-6.87308c1.40986,-2.90784 2.15885,-6.16815 2.15885,-9.82498c0,-3.61277 -0.74899,-6.91714 -2.15885,-9.78092c-1.40986,-2.90784 -3.39248,-5.19887 -5.9038,-6.87308c-2.46726,-1.71827 -5.3751,-2.55538 -8.67947,-2.55538c-3.26031,0 -6.16815,0.83711 -8.67947,2.55538c-2.51132,1.67421 -4.49394,3.96524 -5.9038,6.87308c-1.45392,2.86378 -2.15885,6.16815 -2.15885,9.78092c0,3.65683 0.70493,6.91714 2.15885,9.82498c1.40986,2.90784 3.39248,5.19887 5.9038,6.87308c2.51132,1.71827 5.41916,2.55538 8.67947,2.55538zm67.89369,9.6928c-5.81568,0 -10.88238,-1.18957 -15.24414,-3.61277c-4.3177,-2.4232 -7.66613,-5.77162 -10.04527,-10.00121c-2.33508,-4.27365 -3.4806,-9.16411 -3.4806,-14.67138c0,-6.16815 1.23363,-11.49919 3.70089,-15.90501c2.51132,-4.40582 5.81568,-7.75424 9.82498,-10.08933c4.09741,-2.37914 8.37106,-3.61277 12.90905,-3.61277c3.39248,0 6.60873,0.70493 9.73686,2.07074c3.17219,1.40986 5.94786,3.30437 8.37106,5.72757c2.33508,2.4232 4.27365,5.28698 5.68351,8.54729c1.40986,3.26031 2.15885,6.82902 2.20291,10.70614c-0.04406,1.45392 -0.57276,2.59943 -1.63015,3.52466c-1.0574,0.92522 -2.33508,1.3658 -3.74495,1.3658c0,0 -36.74454,0 -36.74454,0c0,0 -0.13217,-2.15885 -0.13217,-2.15885c0,0 0.08812,-3.74495 0.08812,-3.74495c0,0 0.44058,-3.08407 0.44058,-3.08407c0,0 30.53233,-0.04406 30.53233,-0.04406c0,0 0,-0.74899 0,-0.74899c-0.22029,-2.46726 -1.0574,-4.62611 -2.55538,-6.4325c-1.49798,-1.8945 -3.30437,-3.34842 -5.46322,-4.36176c-2.11479,-1.0574 -4.36176,-1.5861 -6.78496,-1.5861c-2.11479,0 -4.18553,0.35247 -6.12409,1.0574c-1.98262,0.66087 -3.70089,1.76233 -5.19887,3.21625c-1.45392,1.49798 -2.64349,3.43654 -3.56871,5.85974c-0.92522,2.4232 -1.3658,5.41916 -1.3658,9.03193c0,3.87712 0.79305,7.2696 2.4232,10.17744c1.5861,2.86378 3.74495,5.15481 6.52061,6.7409c2.77567,1.5861 5.81568,2.33508 9.20816,2.33508c2.51132,0 4.62611,-0.22029 6.34438,-0.74899c1.67421,-0.57276 3.08407,-1.18957 4.18553,-1.98262c1.14551,-0.79305 2.15885,-1.54204 3.04002,-2.20291c1.10146,-0.66087 2.15885,-0.96928 3.17219,-0.96928c1.23363,0 2.29103,0.44058 3.08407,1.27769c0.88116,0.88116 1.32175,1.93856 1.32175,3.17219c0,1.54204 -0.79305,2.9519 -2.33508,4.22959c-1.8945,1.80639 -4.49394,3.4806 -7.84236,4.89046c-3.34842,1.3658 -6.87308,2.02668 -10.52991,2.02668zm41.59094,-1.01334c-1.54204,0 -2.81972,-0.48464 -3.78901,-1.49798c-0.96928,-1.0574 -1.45392,-2.37914 -1.45392,-3.87712c0,0 0,-44.89531 0,-44.89531c0,-1.49798 0.48464,-2.77567 1.45392,-3.78901c0.96928,-1.01334 2.24697,-1.54204 3.78901,-1.54204c1.49798,0 2.73161,0.5287 3.74495,1.54204c1.01334,1.01334 1.54204,2.29103 1.54204,3.78901c0,0 -0.04406,4.49394 -0.04406,4.49394c0,0 0.39652,-0.96928 1.54204,-2.59943c1.18957,-1.71827 2.59943,-3.21625 4.22959,-4.49394c1.5861,-1.27769 3.39248,-2.29103 5.41916,-2.9519c2.02668,-0.70493 4.14147,-1.0574 6.34438,-1.0574c1.76233,0 3.30437,0.5287 4.67017,1.54204c1.3658,0.96928 2.07074,2.15885 2.07074,3.65683c0,1.8945 -0.5287,3.26031 -1.54204,4.18553c-0.92522,0.88116 -2.02668,1.32175 -3.21625,1.32175c-1.0574,0 -2.11479,-0.26435 -3.08407,-0.70493c-0.96928,-0.44058 -2.11479,-0.70493 -3.43654,-0.70493c-1.54204,0 -3.08407,0.39652 -4.62611,1.18957c-1.54204,0.79305 -2.9519,1.93856 -4.18553,3.43654c-1.32175,1.49798 -2.33508,3.30437 -3.04002,5.3751c-0.74899,2.02668 -1.10146,4.3177 -1.10146,6.82902c0,0 0,25.37752 0,25.37752c0,1.49798 -0.5287,2.81972 -1.54204,3.87712c-1.01334,1.01334 -2.24697,1.49798 -3.74495,1.49798z" fill="#00C48D" id="svg_3"/></g></svg>