<svg xmlns="http://www.w3.org/2000/svg" viewBox="0 0 400 400">
  <g fill-rule="nonzero" transform="translate(50 50)" fill="none">
    <path d="m209.63575,223.41728l-24.25694,-24.25694l-13.58183,-13.58326l-14.60946,-14.60946c-4.55102,-4.55102 -11.92962,-4.55102 -16.48077,0l-52.44966,52.44966c-4.55102,4.55102 -4.55102,11.92962 0,16.48077l52.44966,52.44966c4.55102,4.55102 11.92962,4.55102 16.48077,0l52.44966,-52.44966c4.54839,-4.55102 4.54839,-11.92962 -0.00143,-16.48077z" fill="#00C58E"/>
    <path d="m126.68636,140.46909l-52.44966,-52.44966c-4.55102,-4.55102 -11.92962,-4.55102 -16.48077,0l-52.44966,52.44966c-4.55102,4.55102 -4.55102,11.92962 0,16.48077l52.44966,52.44966c4.55102,4.55102 11.92962,4.55102 16.48077,0l52.44966,-52.44966c4.55102,-4.55234 4.55102,-11.92962 0,-16.48077z" fill="#00C58E"/>
    <path d="m209.63575,57.51971l-52.44966,-52.44966c-4.55102,-4.55102 -11.92962,-4.55102 -16.48077,0l-13.79448,13.79448l-13.58457,13.58457l-25.06917,25.07061c-4.55102,4.55102 -4.55102,11.92962 0,16.48077l52.44966,52.44966c4.55102,4.55102 11.92962,4.55102 16.48077,0l52.44966,-52.44966c4.54839,-4.55102 4.54839,-11.92962 -0.00143,-16.48077l-0.00012,0.00012l0.00012,-0.00012z" fill="#108775"/>
    <path d="m292.58394,140.46909l-52.44966,-52.44966c-4.55102,-4.55102 -11.92962,-4.55102 -16.47945,0l-52.44966,52.44966c-4.55102,4.55102 -4.55102,11.92962 0,16.48077l52.44966,52.44966c4.55102,4.55102 11.92962,4.55102 16.47945,0l52.44966,-52.44966c4.55102,-4.55234 4.55102,-11.92962 0,-16.48077z" fill="#2F495E"/>
  </g>
</svg>
